<svg id="Layer_1" width="129" height="44" data-name="Layer 1" xmlns="http://www.w3.org/2000/svg" viewBox="0 0 129 44">
  <defs>
    <style>
      .cls-1 {
        fill: #fff;
      }

      .cls-2 {
        fill: #b50246;
      }
    </style>
  </defs>
  <path class="cls-2" d="M126.18,43.56H2.88c-1.49,0-2.7-1.21-2.7-2.7V3.16C.18,1.67,1.39.45,2.88.45h123.3c1.49,0,2.7,1.21,2.7,2.7v37.69c0,1.49-1.21,2.7-2.7,2.7Z"/>
  <g>
    <g>
      <g>
        <path class="cls-1" d="M32.69,30.76l1.45-3.19c.15-.32.29-.66.83-.66,0,0-.21.33-.36.66l-2.17,4.76-2.17-4.76c-.15-.33-.36-.66-.36-.66.99,0,1.15.33,1.3.66l1.46,3.19Z"/>
        <path class="cls-1" d="M36.62,31.97h-.85v-4.27c0-.36,0-.78.93-.78,0,0-.07.43-.07.78v4.27Z"/>
        <path class="cls-1" d="M39.46,27.34c-.68,0-1.01.36-1.01.76,0,.2.1.38.29.48l1.78.87c.53.26.78.7.78,1.13,0,.71-.66,1.43-1.85,1.43-.57,0-1.07-.03-1.73-.04l.38-.53c.43.1.94.16,1.35.16.79,0,1.16-.4,1.16-.77,0-.21-.11-.41-.34-.51l-1.75-.86c-.48-.23-.73-.69-.73-1.15,0-.68.53-1.35,1.67-1.35.51,0,1.02.03,1.6.04,0,.05,0,.48-.52.48-.43-.07-.76-.13-1.08-.13Z"/>
        <path class="cls-1" d="M43.05,29.27h2.31v-1.57c0-.36,0-.78.93-.78,0,0-.07.43-.07.78v3.57c0,.36.07.78.07.78-.93,0-.93-.43-.93-.78v-1.57h-2.31v1.57c0,.36,0,.78-.93.78,0,0,.07-.42.07-.78v-3.57c0-.36-.07-.78-.07-.78.93,0,.93.43.93.78v1.57Z"/>
        <path class="cls-1" d="M50.83,26.63l1.91,3.99,1.06-3.02c.11-.33.26-.68.76-.68,0,0-.17.34-.29.68l-1.65,4.73-1.99-4.2-1.89,4.2-1.65-4.73c-.12-.34-.29-.68-.29-.68.95,0,1.06.35,1.18.68l1.06,3.03,1.79-4Z"/>
        <path class="cls-1" d="M57.34,30.12h-1.75l-.58,1.27c-.15.32-.29.66-.83.66,0,0,.21-.33.36-.66l2.17-4.76,2.17,4.76c.15.33.36.66.36.66-.99,0-1.15-.33-1.3-.66l-.58-1.27ZM55.79,29.69h1.37l-.68-1.5-.68,1.5Z"/>
        <path class="cls-1" d="M64.47,30.76l1.45-3.19c.15-.32.29-.66.83-.66,0,0-.21.33-.36.66l-2.17,4.76-2.17-4.76c-.15-.33-.36-.66-.36-.66.99,0,1.15.33,1.3.66l1.46,3.19Z"/>
        <path class="cls-1" d="M68.4,31.97h-.85v-4.27c0-.36,0-.78.93-.78,0,0-.07.43-.07.78v4.27Z"/>
        <path class="cls-1" d="M71.45,26.95c1.47,0,2.46,1.11,2.46,2.53s-.99,2.53-2.46,2.53c-.67,0-1.22-.04-1.77-.04,0,0,.07-.38.07-.71v-3.56c0-.36-.07-.71-.07-.71.59,0,1.18-.04,1.77-.04ZM70.61,27.36v4.25c.31,0,.58.02.85.02,1.1,0,1.57-.93,1.57-2.14s-.56-2.14-1.57-2.14c-.31,0-.58.02-.85.02Z"/>
        <path class="cls-1" d="M76.97,29.14c-.14.19-.19.57-.19.8v2.03h-.85v-2.03c0-.24-.05-.5-.19-.69l-1.16-1.54c-.21-.28-.74-.8-.74-.8,1.18,0,1.41.31,1.65.63l1.07,1.41,1.08-1.44c.22-.3.45-.6,1.15-.6,0,0-.43.41-.63.68l-1.16,1.54Z"/>
        <path class="cls-1" d="M81.58,30.12h-1.75l-.58,1.27c-.15.32-.29.66-.83.66,0,0,.21-.33.36-.66l2.17-4.76,2.17,4.76c.15.33.36.66.36.66-.99,0-1.15-.33-1.3-.66l-.58-1.27ZM80.02,29.69h1.37l-.68-1.5-.68,1.5Z"/>
        <path class="cls-1" d="M87.49,28.33c0,.85-.77,1.41-1.68,1.41-.31,0-.62-.02-.93-.02v1.54c0,.36,0,.78-.93.78,0,0,.07-.43.07-.78v-3.56c0-.36-.07-.71-.07-.71h1.03c.16,0,.28,0,.41,0,.13,0,.26,0,.41,0,.91,0,1.68.51,1.68,1.36ZM84.88,27.34v2.04c.28.01.58.02.78.02.52,0,.95-.38.95-1.08s-.43-1-.95-1c-.26,0-.51.01-.78.01Z"/>
        <path class="cls-1" d="M89.16,31.55h1.92c.5,0,.5.43.5.43h-3.35s.07-.35.07-.71v-3.57c0-.36-.07-.71-.07-.71h3.35s0,.43-.5.43h-1.92v1.85h1.78v.43h-1.78v1.85Z"/>
        <path class="cls-1" d="M93.36,31.55h1.92c.5,0,.5.43.5.43h-3.35s.07-.35.07-.71v-3.57c0-.36-.07-.71-.07-.71h3.35s0,.43-.5.43h-1.92v1.85h1.78v.43h-1.78v1.85Z"/>
        <path class="cls-1" d="M96.14,26.99h4.77s0,.44-.36.44c-.45,0-.68-.03-1.2-.03h-.36v4.57h-.93v-4.57h-.36c-.52,0-.75.02-1.2.03-.35,0-.36-.41-.36-.44Z"/>
        <path class="cls-1" d="M102.34,29.27h2.31v-1.57c0-.36,0-.78.93-.78,0,0-.07.43-.07.78v3.57c0,.36.07.78.07.78-.93,0-.93-.43-.93-.78v-1.57h-2.31v1.57c0,.36,0,.78-.93.78,0,0,.07-.42.07-.78v-3.57c0-.36-.07-.78-.07-.78.93,0,.93.43.93.78v1.57Z"/>
        <path class="cls-1" d="M109.24,30.12h-1.75l-.58,1.27c-.15.32-.29.66-.83.66,0,0,.21-.33.36-.66l2.17-4.76,2.17,4.76c.15.33.36.66.36.66-.99,0-1.15-.33-1.3-.66l-.58-1.27ZM107.68,29.69h1.37l-.68-1.5-.68,1.5Z"/>
        <path class="cls-1" d="M114.99,32.33l-1.91-3.99-1.06,3.02c-.11.33-.26.68-.75.68,0,0,.17-.34.29-.68l1.65-4.73,1.99,4.2,1.89-4.2,1.65,4.73c.12.34.29.68.29.68-.95,0-1.06-.35-1.18-.68l-1.06-3.03-1.79,4Z"/>
      </g>
      <g>
        <path class="cls-1" d="M37.61,8.52l-6.45,14.18c-.3.65-.87,1.63-1.22,2.21h.16c1.31,0,1.92-.62,2.33-1.33.13-.23.24-.47.35-.7l.03-.07,1.6-3.51h5.02l1.61,3.51c.46.98.98,2.1,4.09,2.1h.16s-.78-1.23-1.23-2.21l-6.45-14.18ZM34.97,18.07l1.95-4.27,1.96,4.27h-3.9Z"/>
        <path class="cls-1" d="M63.87,8.52l-5.63,12.5-5.92-12.5-4.92,14.09c-.36,1.02-.99,2.29-.99,2.29h.12c1.74,0,2.19-1.33,2.49-2.21l2.96-8.42,5.66,11.83,5.31-11.83,2.97,8.46c.37,1.02.78,2.17,3.75,2.17h.12s-.63-1.27-.99-2.29l-4.92-14.09Z"/>
        <path class="cls-1" d="M85.97,11.52v13.34h3.05v-13.34c0-1.03.21-2.28.21-2.29l.05-.3h-.3c-3.01,0-3.01,1.5-3.01,2.59Z"/>
        <path class="cls-1" d="M104.65,10.5c1.04,0,1.31-.99,1.31-1.57h-14.73c0,.58.28,1.57,1.32,1.57.55,0,1-.02,1.43-.04.64-.02,1.24-.04,2.15-.04h.83v14.43h3.27v-14.43h.83c.91,0,1.51.02,2.15.04.43.02.88.03,1.43.04Z"/>
        <path class="cls-1" d="M82.25,23.19l-4.06-5.43c2.46-.42,4.43-2.22,4.28-4.84-.14-2.48-2.37-3.99-5.09-3.99-2.02,0-3.88.09-5.73.09,0,0,.21,1.06.21,2.12l-.08,11.43c0,1.06-.21,2.34-.21,2.34,2.76,0,2.76-1.27,2.76-2.34l.08-12.43c1.13,0,1.83-.05,2.55-.04,1.61,0,2.87,1.15,3.05,2.86.2,1.89-.46,3.29-1.83,3.91-1.01.41-3.2.35-3.2.35l4.48,6.02c.64.85,1.5,1.66,4.28,1.66,0,0-.76-.72-1.51-1.72Z"/>
        <path class="cls-1" d="M117.78,22.7l-6.45-14.18-6.45,14.18c-.3.65-.87,1.63-1.22,2.21h.16c1.31,0,1.92-.62,2.33-1.33.13-.23.24-.47.35-.7l.03-.07,1.6-3.51h5.02l1.61,3.51c.46.98.98,2.1,4.09,2.1h.16s-.78-1.23-1.23-2.21ZM108.68,18.07l1.95-4.27,1.96,4.27h-3.9Z"/>
      </g>
      <g>
        <path class="cls-1" d="M21.33,20.49l-.3.1c.09.05.22.1.4.1.01,0,.02,0,.03,0,.03,0,.05,0,.08,0h4.27c.05-.12.09-.24.13-.36h-4.24c-.11.06-.23.11-.37.15Z"/>
        <path class="cls-1" d="M16.59,20.68s.02,0,.03,0c.18,0,.31-.04.4-.1l-.3-.1c-.14-.04-.26-.1-.37-.15h-4.26c.04.12.08.24.13.36h4.29s.05,0,.07,0Z"/>
        <path class="cls-1" d="M21.56,21.01c-.17.11-.51.21-.84.21h0s-.06,0-.08-.02c-.1.06-.34.13-.56.16h5.43c.06-.12.12-.24.17-.36h-4.1s0,0,0,0Z"/>
        <path class="cls-1" d="M17.43,21.21s-.05.02-.08.02h-.01c-.34,0-.68-.11-.84-.21,0,0,0,0-.01,0h-4.13c.05.12.11.24.17.36h5.46c-.21-.02-.45-.09-.56-.16Z"/>
        <path class="cls-1" d="M10.9,18.03c-.19.05-.33.15-.44.31-.36.56-.1,1.69.12,2.6.08.33.15.63.18.86,0,.04.01.08.02.12.04.28.08.6.02.8l-.02.06h.06c.2.06.46.26.68.43.03.03.07.05.1.08.18.14.41.36.66.59.66.63,1.49,1.4,2.15,1.4.02,0,.03,0,.05,0,.19-.01.35-.09.49-.23-.05.19-.03.37.05.53.3.59,1.41.93,2.31,1.2.32.1.62.19.84.27.04.02.08.03.12.05.26.11.56.23.7.38l.04.05.04-.05c.14-.15.44-.27.7-.38.04-.02.08-.03.12-.05.21-.09.52-.18.84-.27.89-.27,2.01-.6,2.31-1.2.09-.17.1-.35.05-.54.14.14.3.21.49.22.01,0,.03,0,.05,0,.66,0,1.48-.78,2.15-1.4.24-.23.47-.45.66-.59.03-.02.07-.05.1-.08.22-.17.48-.37.68-.42h.06s-.02-.08-.02-.08c-.06-.2-.02-.52.02-.8,0-.04.01-.08.02-.13.03-.23.1-.54.18-.86.22-.91.48-2.04.12-2.6-.1-.16-.25-.26-.44-.31.19-.05.33-.15.44-.31.36-.56.1-1.69-.12-2.6-.08-.33-.15-.63-.18-.86,0-.04-.01-.08-.02-.12-.04-.28-.08-.6-.02-.8l.02-.06h-.06c-.2-.06-.46-.26-.68-.43-.03-.03-.07-.05-.1-.08-.18-.14-.41-.36-.66-.59-.66-.63-1.49-1.4-2.15-1.4-.02,0-.03,0-.05,0-.19.01-.35.09-.49.23.05-.19.03-.37-.05-.53-.3-.59-1.41-.93-2.31-1.2-.32-.1-.62-.19-.84-.27-.04-.02-.08-.03-.12-.05-.26-.11-.56-.23-.7-.38l-.04-.05-.04.05c-.14.15-.44.27-.7.38-.04.02-.08.03-.12.05-.21.09-.52.18-.84.27-.89.27-2.01.6-2.31,1.2-.09.17-.1.35-.05.54-.14-.14-.3-.21-.49-.22-.67-.04-1.51.76-2.19,1.4-.24.23-.47.45-.66.59-.03.02-.07.05-.1.08-.22.17-.48.37-.68.42h-.06s.02.08.02.08c.06.2.02.52-.02.8,0,.04-.01.08-.02.12-.03.23-.1.54-.18.86-.22.91-.48,2.04-.12,2.6.1.16.25.26.44.31ZM19.01,10.04c4.39,0,7.96,3.59,7.96,7.99s-3.57,7.99-7.96,7.99-7.96-3.59-7.96-7.99,3.57-7.99,7.96-7.99Z"/>
        <path class="cls-1" d="M16.12,24.72h5.8c.25-.11.49-.23.72-.36h-7.23c.23.13.47.25.72.36Z"/>
        <path class="cls-1" d="M19.01,25.32c.71,0,1.39-.1,2.03-.29h-4.07c.65.19,1.33.29,2.03.29Z"/>
        <path class="cls-1" d="M20.78,18.04s-.2-.09-.38-.09c-.08,0-.16,0-.23.03-.27.07-.5.35-.5.49.09.11.19.22.29.31.22.21.42.42.43.71,0,.13-.01.26-.06.38-.1.26-.33.4-.54.49.62-.03,1.07-.17,1.3-.41.15-.16.22-.37.21-.62-.01-.18-.14-.35-.26-.52-.18-.24-.36-.48-.25-.77,0,0,0,0,0,0Z"/>
        <path class="cls-1" d="M21.62,18.2c-.1,0-.24.01-.38.06-.16.06-.26.12-.3.18.05.1.12.2.2.3.13.18.27.37.29.58.02.29-.06.53-.24.72-.22.22-.58.37-1.07.42.04,0,.07,0,.11,0,.73,0,1.32-.16,1.66-.46.21-.19.31-.41.3-.67,0-.17-.11-.31-.2-.44-.13-.18-.27-.38-.11-.66-.04-.01-.13-.03-.25-.03Z"/>
        <path class="cls-1" d="M20.22,19.82c.04-.11.06-.21.05-.33-.01-.24-.19-.43-.39-.62-.07-.07-.42-.41-.54-.71l-.02-.05c-.09-.21-.15-.35-.29-.35-.14,0-.21.14-.29.36,0,0-.24.45-.58.77-.19.18-.36.37-.37.6,0,.12.01.22.05.33.15.38.69.54,1.17.54h.02s0,0,0,0h.02c.48,0,1.02-.17,1.17-.54Z"/>
        <path class="cls-1" d="M16.76,19.32c-.02.25.05.46.21.62.24.24.68.38,1.3.41-.21-.09-.44-.23-.54-.49-.05-.12-.07-.25-.06-.38.01-.29.21-.5.43-.71.1-.1.2-.21.29-.31,0-.14-.22-.43-.5-.49-.07-.02-.15-.03-.23-.03-.18,0-.33.05-.38.09,0,0,0,0,0,0,.11.28-.07.53-.25.77-.12.17-.25.34-.26.52Z"/>
        <path class="cls-1" d="M15.88,19.32c-.01.26.09.48.3.67.34.3.93.46,1.66.46.03,0,.07,0,.11,0-.49-.06-.85-.2-1.07-.42-.18-.19-.26-.43-.24-.72.01-.21.15-.4.29-.58.07-.1.15-.2.2-.3-.04-.07-.14-.13-.3-.18-.14-.05-.28-.06-.38-.06-.12,0-.21.01-.25.03.16.28.02.48-.11.66-.09.13-.19.27-.2.44Z"/>
        <path class="cls-1" d="M17.57,20.76s.05-.03.07-.05c.05-.03.07-.06.1-.09.01-.01.03-.03.04-.05-.14,0-.28,0-.41-.02h0s-.02,0-.03.01c-.02.01-.03.03-.05.04-.12.1-.3.26-.68.26h-.01c.13.07.42.17.73.17h0s.03-.01.04-.02c0-.02,0-.04,0-.05.02-.09.1-.14.2-.2Z"/>
        <path class="cls-1" d="M18.04,21.2c.08,0,.15,0,.2-.03.04-.01.07-.03.08-.05-.01-.02-.03-.03-.04-.05-.09-.13-.13-.35.02-.51,0,0,0,0,0,0-.05,0-.09,0-.14.01-.23.03-.27.08-.33.14-.03.03-.06.07-.12.11-.02.02-.05.03-.07.05-.07.05-.14.09-.15.13,0,.01,0,.03.01.04.06.09.3.16.53.16Z"/>
        <path class="cls-1" d="M19.03,20.5h0c-.33,0-.53.05-.63.15-.11.11-.07.26,0,.36.01.02.03.04.05.06h.01c.05.05.11.07.17.1.14.05.3.11.41.36.11-.24.27-.3.41-.36.06-.02.12-.05.17-.09h.01s.04-.05.05-.07c.07-.1.1-.25,0-.36-.09-.1-.29-.15-.63-.15h0Z"/>
        <path class="cls-1" d="M19.74,21.12s.04.03.08.05c.05.02.12.03.2.03.23,0,.47-.07.53-.16.01-.02.02-.03.01-.04,0-.04-.08-.08-.15-.13-.02-.01-.05-.03-.07-.05-.06-.04-.09-.08-.12-.11-.06-.06-.1-.11-.33-.14-.05,0-.09,0-.14-.01,0,0,0,0,0,0,.15.17.11.38.02.51-.01.02-.02.03-.04.05Z"/>
        <path class="cls-1" d="M20.72,21.04h0c.31,0,.6-.1.73-.17h-.01c-.38,0-.56-.16-.68-.26-.02-.01-.03-.03-.05-.04,0,0-.01,0-.03-.01h0c-.14.01-.27.02-.41.02.02.01.03.03.04.05.03.03.06.06.1.09.02.02.04.03.07.05.1.06.18.11.2.2,0,.02,0,.03,0,.05,0,0,0,.02.04.02Z"/>
        <path class="cls-1" d="M17.49,23.38s.54.16.64.18c.16.02.34.02.47-.1,0,0,.02-.02.03-.03.02-.03.04-.05.06-.08.07-.17-.1-.38-.61-.5-.63-.15-1.59-.17-2.26.02-.38.11-.54.27-.53.43,0,.04.01.09.04.13h0c.04.08.12.15.22.21.05.03.11.06.17.08h0c.11.04.24.08.37.11.38.08.83.1,1.22.08.57-.03.53-.21.4-.28-.03-.02-.17-.09-.27-.17-.07-.06-.03-.12.05-.08Z"/>
        <path class="cls-1" d="M17.91,23.66s0,.02,0,.03c0,.03,0,.07,0,.1-.05.18-.3.24-.52.26h5.72c.17-.11.33-.23.48-.36h-5.56s-.08-.02-.14-.03Z"/>
        <path class="cls-1" d="M16.05,23.97c-.15-.03-.28-.07-.39-.11h0s0,0,0,0c-.07-.03-.13-.06-.19-.09-.04-.02-.07-.05-.1-.07h-.94c.16.13.32.25.48.36h1.72c-.2-.01-.4-.04-.57-.08Z"/>
        <path class="cls-1" d="M20.19,22.02c-.02-.07-.01-.14.02-.2.02-.03.06-.06.1-.09.04-.02.09-.04.14-.06h-7.76c.07.12.15.24.22.36h7.28s0,0,0-.01Z"/>
        <path class="cls-1" d="M22.92,21.79c.29.07.51.16.67.24h1.52c.08-.12.15-.24.22-.36h-3.01c.21.03.42.07.59.12Z"/>
        <path class="cls-1" d="M23.85,22.4c0,.07-.05.15-.12.22l-.02.02s-.05.04-.08.06h.99c.1-.12.19-.24.28-.36h-1.04s0,.04,0,.06Z"/>
        <path class="cls-1" d="M15.86,22.71c.31-.08.69-.12,1.09-.12s.82.04,1.15.12h1.39c-.03-.08-.03-.15-.02-.19.02-.06.05-.12.09-.17h-6.43c.09.12.18.24.28.36h2.44Z"/>
        <path class="cls-1" d="M15.13,23.3c0-.08.02-.18.11-.28h-1.54c.12.12.24.24.36.36h1.08s0-.05,0-.08Z"/>
        <path class="cls-1" d="M22.45,23.13h-.05c-.44.1-.89.14-1.31.14s-.95-.05-1.3-.25h-1.07s.05.06.07.09c.04.09.05.18.03.27h5.15c.12-.12.25-.24.36-.36h-1.44c-.14.04-.28.08-.44.11Z"/>
        <path class="cls-1" d="M20.93,22.37c-.07,0-.16-.01-.26-.03-.1-.02-.22-.03-.34-.04-.03,0-.06,0-.09,0-.15,0-.28.02-.39.04-.15.04-.38.23-.12.45.22.22.7.34,1.36.34.41,0,.85-.05,1.28-.13h.05c.55-.12.99-.29,1.18-.46l.02-.02s.08-.09.08-.13c0-.07-.05-.26-.82-.46-.46-.12-1.08-.19-1.61-.19h-.03c-.48,0-.75.06-.86.12-.03.01-.04.03-.05.04-.01.02-.02.05,0,.07.08.18.38.23.66.23.16,0,.15.07.12.11-.05.05-.12.06-.17.06Z"/>
        <path class="cls-1" d="M25.12,20.08l-1.81-.16s-.01.1-.02.14l1.81.16s.01-.1.02-.14Z"/>
        <path class="cls-1" d="M25.06,18.49l-1.79.32s.01.09.02.14l1.79-.32s-.01-.09-.02-.14Z"/>
        <path class="cls-1" d="M22.94,17.73s.04.09.06.13l1.65-.77s-.04-.09-.06-.13l-1.65.77Z"/>
        <path class="cls-1" d="M23.83,15.72s-.06-.08-.09-.11l-1.4,1.18s.06.07.09.11l1.4-1.18Z"/>
        <path class="cls-1" d="M22.74,14.64s-.08-.06-.12-.09l-1.06,1.49s.08.06.11.09l1.07-1.49Z"/>
        <path class="cls-1" d="M20.75,15.58l.66-1.71s-.09-.04-.13-.05l-.66,1.7s.09.04.13.06Z"/>
        <path class="cls-1" d="M12.98,20.22l1.79-.15s-.01-.09-.02-.14l-1.79.15s.01.1.02.14Z"/>
        <path class="cls-1" d="M14.79,18.8l-1.77-.31s-.02.09-.02.14l1.77.31s.01-.09.02-.14Z"/>
        <path class="cls-1" d="M13.43,17.09l1.63.76s.04-.09.06-.13l-1.63-.76s-.04.09-.06.13Z"/>
        <path class="cls-1" d="M15.72,16.78l-1.39-1.17s-.06.07-.09.11l1.39,1.17s.06-.08.09-.11Z"/>
        <path class="cls-1" d="M16.35,16.17s.07-.06.11-.09l-1.08-1.46s-.08.06-.11.09l1.08,1.46Z"/>
        <path class="cls-1" d="M17.26,15.6l-.74-1.66s-.09.04-.13.06l.74,1.66s.09-.04.13-.06Z"/>
        <path class="cls-1" d="M23.33,19.51l3.16-.14s0-.1,0-.14l-3.16.14s0,.1,0,.14Z"/>
        <path class="cls-1" d="M23.18,18.4l3.02-.96s-.03-.09-.04-.14l-3.02.95s.03.09.04.14Z"/>
        <path class="cls-1" d="M22.74,17.36l2.68-1.71s-.05-.08-.08-.12l-2.67,1.71s.05.08.07.12Z"/>
        <path class="cls-1" d="M24.2,14.13s-.07-.07-.1-.1l-2.14,2.34s.07.07.1.1l2.14-2.34Z"/>
        <path class="cls-1" d="M22.69,13.01s-.08-.05-.13-.07l-1.49,2.8s.08.05.12.07l1.49-2.8Z"/>
        <path class="cls-1" d="M14.73,19.36l-3.14-.14s0,.1,0,.14l3.14.14s0-.1,0-.14Z"/>
        <path class="cls-1" d="M14.92,18.25l-3-.95s-.03.09-.04.14l3,.95s.03-.09.04-.14Z"/>
        <path class="cls-1" d="M15.39,17.23l-2.66-1.69s-.05.08-.08.12l2.66,1.7s.05-.08.07-.12Z"/>
        <path class="cls-1" d="M16.06,16.42l-2.17-2.29s-.07.07-.1.1l2.17,2.29s.07-.07.1-.1Z"/>
        <path class="cls-1" d="M15.13,13.16l1.59,2.73s.08-.05.12-.08l-1.59-2.73s-.08.05-.12.07Z"/>
        <path class="cls-1" d="M13.95,13.26l-.11-.09-.17.2s-.05.09-.05.14c0,.05.02.1.06.13.05.04.11.07.2.09.09.02.18.03.29.02v-.06c-.06,0-.12,0-.18-.02-.06-.02-.1-.04-.13-.07-.03-.02-.05-.06-.05-.09s0-.07.03-.1l.11-.13Z"/>
        <path class="cls-1" d="M14.77,11.65s.05-.02.07-.02c.03,0,.05,0,.07,0l.26.11s0-.06-.11-.12c-.06-.03-.1-.05-.12-.05-.06-.03-.11-.04-.17-.04-.06,0-.1,0-.14.03-.02.01-.04.03-.05.04l.14.1s.04-.03.06-.05Z"/>
        <path class="cls-1" d="M15.48,11.37s.04-.02.06-.03c.03-.02.08-.02.14-.02.06,0,.12.01.19.03l.09-.04-.24-.21s-.07-.06-.12-.07c-.04-.01-.08,0-.12,0-.04.02-.07.04-.09.06l.14.1s0-.02.02-.03c.02-.01.03-.02.04-.03.02,0,.04,0,.07,0,.03.01.06.03.09.06l.14.1h-.02c-.14-.03-.24-.06-.31-.07-.08-.01-.14-.01-.18,0-.02,0-.03.01-.05.02-.01,0-.02.02-.03.03l.13.11s.02-.02.04-.03Z"/>
        <path class="cls-1" d="M13.91,12.95s.01,0,.02,0c.01,0,.02.01.03.02.02.02.03.06.02.11-.01.05-.04.09-.08.13.09.06.19.09.28.1.09,0,.17-.01.22-.06.02-.02.04-.05.06-.08.02-.03.03-.07.03-.11l.11.12.18-.04-.5-.53c.07-.07.15-.13.23-.19l.39.49.19-.02-.45-.58c.08-.07.17-.13.26-.19l.12.18-.07.04s-.02.02-.02.03c0,.01,0,.02,0,.03.02.03.07.05.15.07.08.02.13.01.17,0,.01,0,.02-.02.03-.03,0-.02,0-.03,0-.04l-.24-.37c.06-.04.12-.08.18-.12l.35.55h.18s-.4-.63-.4-.63c.18-.11.37-.21.56-.31l.1.2-.32.16s-.03.02-.03.04c0,.02,0,.04,0,.05.02.04.06.07.11.1.06.03.1.03.13.02,0,0,.01-.01.02-.02,0,0,0-.02,0-.03l-.03-.06s0-.02,0-.03c0-.01,0-.02.01-.02l.17-.09.13.25h.18s-.33-.65-.33-.65c.2-.09.41-.18.62-.25l.09.24c-.06-.03-.11-.05-.16-.07-.05-.01-.09-.01-.11,0-.06.02-.1.06-.13.11-.03.05-.03.11-.01.16.02.06.07.11.15.15.08.04.15.05.2.03.03,0,.05-.03.07-.05.03-.02.05-.06.07-.09l.05.14.18.04-.12-.32s.04-.08.06-.11c.03-.03.06-.05.09-.06.02,0,.03,0,.05,0,.02,0,.03.02.04.04.01.03.02.07.01.12,0,.05-.02.1-.03.14l.17.04c.03-.1.02-.2,0-.28-.02-.06-.07-.11-.13-.15-.07-.04-.13-.06-.17-.04-.02,0-.04.02-.06.04-.02.02-.05.04-.07.07l-.07-.19c.16-.05.32-.1.48-.14l-.04-.03h0s0,0,0,0l-.1-.09c-1.56.42-2.92,1.33-3.89,2.57l.16.04c.15-.19.32-.37.49-.55ZM16.69,11.63s-.06.06-.09.07c-.02,0-.04,0-.06,0-.02,0-.03-.02-.04-.04-.01-.04,0-.07,0-.1.01-.03.04-.06.07-.07.03-.01.06-.01.1-.01.04,0,.07.01.11.03-.03.05-.06.09-.09.12ZM14.16,12.71l.2.21c0,.06-.02.12-.03.16s-.04.08-.06.1c-.02.02-.05.04-.08.04-.03,0-.06,0-.09,0,0,0,0,0,0,0,0,0,0,0,0-.01.04-.05.06-.1.07-.14.01-.05,0-.08-.01-.1-.01-.02-.04-.03-.07-.04-.03,0-.07-.02-.11-.02.06-.06.13-.12.19-.18Z"/>
        <path class="cls-1" d="M16.3,10.85s.05,0,.08,0c.03,0,.05,0,.07.02l.23.16s.02-.06-.08-.14c-.05-.04-.09-.07-.1-.08-.05-.04-.1-.06-.16-.08-.05-.01-.1-.02-.15,0-.02,0-.04.02-.06.03l.11.12s.04-.03.07-.03Z"/>
        <path class="cls-1" d="M19.41,11.65s.06-.02.1-.02h.09s-.06-.1-.06-.1h-.08c-.05-.01-.1,0-.14.02-.04.02-.06.06-.07.09,0,.07.01.14.06.19.05.06.11.1.18.1.05,0,.09,0,.12,0,.04,0,.07-.02.1-.04l-.06-.13s-.08.04-.12.06c-.04.01-.08.02-.12.01-.02,0-.04-.01-.06-.04-.02-.02-.02-.05-.02-.07,0-.03.02-.05.05-.07Z"/>
        <path class="cls-1" d="M20.83,11.34s.07-.03.1-.02l.16.04.04-.14-.25-.07c-.05-.01-.1,0-.14.02-.05.02-.08.06-.09.11-.02.06-.02.13,0,.22.02.09.06.18.11.27l.06-.02c-.03-.06-.05-.12-.06-.18,0-.06,0-.11,0-.15,0-.04.03-.07.06-.09Z"/>
        <path class="cls-1" d="M23.92,12.67c-.06.01-.09.05-.1.14-.01.08,0,.18.03.28-.07.02-.13.02-.19,0,.01-.03.02-.05.02-.06,0-.02,0-.03-.01-.04-.01-.02-.04-.02-.06-.02-.03,0-.05.02-.07.04-.02.02-.03.05-.02.09,0,.04.03.07.06.1l-.05.25.09.03v-.24c.11.03.21.04.3.02.09,0,.16-.04.21-.09.09-.1.13-.28.01-.42-.04-.04-.1-.07-.2-.06ZM24.07,12.9s-.02.07-.05.1c-.02.03-.05.04-.07.06-.02.01-.04.02-.05.02-.01-.05-.02-.1-.01-.15,0-.04.01-.07.03-.09.02-.02.04-.03.07-.04.02,0,.04,0,.06.02.02.02.03.05.02.09Z"/>
        <path class="cls-1" d="M23.71,13.84s-.09-.03-.13-.07c-.06-.07-.11-.14-.14-.21-.03-.07-.05-.13-.04-.18h-.06c0,.08,0,.16.04.25.03.09.08.17.15.25.05.06.1.09.16.1.06.01.12,0,.16-.04.04-.03.06-.08.06-.15,0-.07,0-.12-.04-.16-.02-.02-.04-.03-.07-.05-.03-.01-.06-.02-.1-.02v.14s.05,0,.07,0c.03,0,.05.02.06.03s.02.03.02.04c0,.01,0,.03-.01.04-.04.03-.08.04-.13.03Z"/>
        <path class="cls-1" d="M18.03,11.46c.08.06.16.08.24.07.06,0,.1-.03.14-.08.04-.05.05-.1.05-.16,0-.02,0-.05-.02-.07,0-.02-.02-.04-.04-.06.04.02.07.04.1.05.03.01.06.02.09.01.03,0,.06-.01.07-.02l.02.25.17.07-.07-.72c.1,0,.19,0,.29,0,.01,0,.03,0,.04,0v.29s-.07,0-.07,0c-.01,0-.02,0-.03.01,0,0-.01.02-.02.03,0,.03.03.07.08.14s.1.1.13.1c0,0,.02,0,.02-.01,0-.01.01-.02.01-.04v-.07s.27.01.27.01v.2s.15.11.15.11l.03-.74c.22.02.45.05.66.09l-.02.12-.23-.04c-.06,0-.11,0-.15.03-.04.03-.07.07-.08.11-.01.07,0,.14.02.22.02.08.06.16.12.25l.06-.03c-.04-.05-.07-.11-.08-.16-.01-.06-.02-.11,0-.16,0-.04.03-.07.06-.09.03-.02.07-.03.11-.03l.16.03-.06.37.14.13.12-.73c.42.09.82.21,1.21.36l-.08.22c-.02-.06-.05-.11-.09-.16-.04-.05-.08-.08-.12-.09-.07-.03-.13-.03-.19,0-.06.02-.1.06-.12.11-.02.06-.01.14.03.23.04.09.1.15.16.17.04.01.07.02.11.02.04,0,.08-.01.12-.03l-.05.13.11.16.26-.69c.1.04.2.09.3.13l-.14.26-.05-.02s-.02,0-.03,0c-.01,0-.02,0-.03.02-.01.02,0,.08.02.16.03.08.05.13.07.14,0,0,.02,0,.03,0,.01,0,.02-.02.03-.03l.03-.06.24.12-.09.17.09.17.34-.65c.09.05.17.1.25.15l-.35.53.08.18.41-.62c.17.12.34.24.51.37l-.14.18-.28-.22s-.03-.02-.05-.01c-.02,0-.04.01-.05.03-.03.04-.04.08-.04.14,0,.06.01.1.04.12,0,0,.02,0,.02,0,.01,0,.02,0,.03-.01l.04-.05s.02-.01.03-.02c.01,0,.02,0,.03,0l.15.12-.18.22.07.17.45-.58c.07.06.13.11.2.17l.11-.11c-1.31-1.18-3.04-1.9-4.94-1.9-.22,0-.44,0-.65.03l.1.15s.07,0,.1,0l.02.21s-.03.04-.05.05c-.02.01-.04.02-.07.02-.05,0-.08,0-.11,0-.03,0-.05,0-.06-.01.02-.02.04-.04.05-.07.01-.03.02-.06.01-.09,0-.06-.04-.11-.12-.16-.07-.05-.14-.07-.21-.06-.03,0-.07.01-.1.04-.04.02-.07.04-.1.07l.09.11s.07-.06.11-.08c.04-.02.07-.03.11-.04.03,0,.05,0,.08.02.02.02.04.04.04.06,0,.04,0,.07-.02.1,0,.03-.03.04-.06.05-.02,0-.04,0-.07,0-.03,0-.06.02-.09.04l.07.13c.06-.01.11-.04.17-.08.01.01.02.02.03.04,0,.01.01.03.01.05,0,.04,0,.08-.03.12-.03.04-.07.05-.11.06-.05,0-.11-.01-.17-.05-.06-.04-.11-.09-.15-.16l-.05.04c.05.1.12.18.2.23ZM21.42,11.65c-.06,0-.11,0-.15-.02-.03-.01-.06-.03-.07-.06-.02-.03-.02-.05,0-.08.01-.04.05-.06.11-.08.06-.01.12,0,.17.01.03,0,.05.03.08.06.02.03.04.06.06.11-.06.03-.12.05-.18.05ZM22.3,11.57c.08.04.16.08.24.12l-.14.26-.24-.12.14-.26ZM19.26,10.8c.09,0,.18,0,.27.01v.3s-.28-.01-.28-.01v-.3Z"/>
        <path class="cls-1" d="M23.88,13.56l.05.18.52-.51s.08.09.12.13l.04-.19c-.09-.11-.19-.21-.28-.31l-.11.11s.09.09.13.13l-.46.46Z"/>
        <rect class="cls-1" x="24.2" y="13.69" width=".2" height=".2"/>
        <rect class="cls-1" x="24.43" y="13.47" width=".2" height=".2"/>
        <g>
          <path class="cls-1" d="M16.69,32.24l.26.15v-1.23h.26l-.13-.23h-6.57l.15.23h.06v.54l-.29-.13s.05-.06.06-.11.02-.09.02-.13c0-.1-.05-.21-.15-.31-.1-.11-.2-.16-.29-.16s-.17.03-.24.09c-.06.06-.1.13-.1.21,0,.07.03.13.09.21.06.07.14.13.25.18-.1.06-.26.15-.48.25l.21.18c.25-.12.43-.23.54-.32l.23.12-.69.43.19.16.65-.44v.34l.26.15v-1.23h1.57v.21h-.31c-.11,0-.2.04-.27.11-.07.08-.11.17-.11.27,0,.13.07.26.2.4.14.14.26.21.38.21,0,0,.02,0,.05-.01h.04c-.03.1-.08.19-.14.26-.06.07-.13.11-.19.11-.04,0-.06-.01-.08-.04-.02-.02-.03-.05-.04-.08,0-.04.02-.07.05-.09.04-.03.08-.05.13-.07l-.23-.15s-.07.02-.1.05c-.03.02-.04.04-.05.07-.1,0-.17-.01-.22-.04.05-.02.09-.05.12-.09.03-.04.04-.09.04-.14,0-.07-.02-.13-.07-.18-.04-.05-.1-.07-.16-.07-.08,0-.15.02-.21.07-.06.05-.09.12-.09.19,0,.1.06.19.17.26.11.07.25.11.4.11-.02.07.02.15.11.22.1.07.21.11.34.11.07,0,.15-.03.22-.08.07-.05.12-.13.16-.23l.12.25.16-.07-.22-.37s.07-.03.09-.06c.03-.04.04-.07.04-.11,0-.05-.02-.11-.07-.18-.05-.06-.1-.09-.15-.09-.05,0-.1.01-.13.04-.04.03-.06.06-.06.11,0,.04.01.08.04.13-.05.03-.1.04-.13.04-.09,0-.16-.03-.22-.1-.06-.07-.09-.15-.09-.24,0-.07.02-.14.07-.2.04-.05.1-.08.16-.08h.5v-.44h.42v1.06l.26.18v-1.23h1.21v.4c-.07-.08-.14-.15-.23-.19-.09-.05-.17-.07-.24-.07-.12,0-.21.03-.29.1-.08.06-.12.14-.12.24,0,.11.06.23.18.34.12.12.24.17.35.17.06,0,.12-.01.18-.04.06-.03.12-.07.17-.12v.23l.26.18v-1.23h.45v1.06l.26.18v-1.23h1.01v.38h-.59s-.06.01-.08.04c-.02.02-.04.05-.04.08,0,.07.03.15.09.23.06.08.12.12.17.12.02,0,.03,0,.04-.02.01,0,.02-.02.02-.04v-.1s0-.04.02-.05c0-.02.02-.02.04-.02h.32v.47ZM10.27,31.37s-.05.08-.09.1c-.05-.02-.09-.05-.13-.09-.03-.04-.05-.09-.05-.14,0-.04.02-.08.05-.11.04-.03.08-.05.13-.05.04,0,.07.01.09.04.03.03.04.06.04.09,0,.06-.01.12-.04.16ZM11.47,32.23s-.04-.06-.04-.09.01-.07.04-.09c.03-.03.06-.04.09-.04s.07.01.09.04c.03.03.04.06.04.09s-.01.07-.04.09c-.03.03-.06.04-.09.04s-.07-.01-.09-.04ZM14.47,31.87c-.09.04-.17.06-.25.06-.06,0-.11-.02-.15-.05-.04-.03-.06-.07-.06-.11,0-.06.04-.13.12-.18.08-.05.17-.08.27-.08.05,0,.1.02.16.05.05.03.11.07.15.13-.08.08-.16.14-.25.19Z"/>
          <path class="cls-1" d="M16.96,32.54c-.08-.07-.15-.1-.2-.1-.04,0-.08,0-.11.02-.03,0-.06.03-.09.06l.1.16s.05-.03.07-.04c.03-.01.05-.02.08-.02.07,0,.2.11.4.32l.16.16.09-.07c-.12-.13-.28-.29-.49-.48Z"/>
          <path class="cls-1" d="M22.32,30.92h-1.86l.15.23h.29v.5h-.41v-.43c0-.09-.04-.18-.13-.27-.09-.09-.18-.14-.28-.14-.08,0-.14.02-.2.07-.05.05-.08.12-.08.19,0,.02,0,.05,0,.07l-.13-.23h-1.7l.13.23h1.07v.19s-.07.02-.12.05c-.04.04-.09.08-.13.14-.05-.07-.11-.12-.17-.15-.06-.04-.11-.05-.17-.05-.1,0-.18.04-.25.11s-.1.15-.1.25c0,.1.04.21.13.32.08.12.21.23.37.35l.07-.09c-.1-.09-.18-.17-.23-.25-.05-.09-.08-.17-.08-.23,0-.07.02-.13.06-.18.04-.05.09-.07.14-.07.03,0,.06,0,.09.03.03.02.06.04.08.08-.06.13-.09.2-.1.23l.23.1c.03-.13.08-.24.15-.33.06-.08.13-.13.21-.13.04,0,.08.01.11.04.03.02.04.05.04.08,0,.06-.03.13-.09.22-.06.08-.15.16-.26.24l.22.21c.09-.1.17-.2.22-.29.05-.1.08-.18.08-.26,0-.09-.02-.17-.06-.24-.04-.07-.09-.12-.16-.14v-.21h.37c.02.07.05.13.11.19.09.08.19.13.3.15v.16h-.09s-.05,0-.07.02c-.02.02-.03.04-.03.06,0,.06.05.13.14.22.09.09.17.13.23.13.03,0,.05-.01.06-.04.02-.02.02-.05.02-.08v-.09h.41v.35l.26.15v-1.23h1.07v.21h-.38c-.09,0-.17.03-.24.09-.06.06-.1.13-.1.21,0,.12.03.23.1.36.06.13.15.25.27.38l.09-.06c-.08-.07-.13-.15-.18-.24-.04-.09-.06-.17-.06-.26,0-.07.02-.12.07-.16.04-.05.1-.07.16-.07h.26v.62l.26.18v-1.23h.26l-.13-.23h-.31ZM20.23,31.38s-.09-.04-.12-.09c-.03-.04-.04-.1-.04-.16,0-.04.01-.08.03-.11s.04-.05.07-.05c.02,0,.03.01.04.04.01.02.02.05.02.08v.29Z"/>
          <path class="cls-1" d="M22.26,30.65c-.06-.09-.1-.15-.13-.18-.06-.08-.13-.15-.21-.2-.08-.05-.16-.07-.23-.07-.04,0-.08.01-.11.02l.12.25s.08-.02.12-.02.08,0,.12.03c.04.02.07.04.09.07l.28.37c.08,0,.06-.09-.06-.26Z"/>
          <path class="cls-1" d="M28.09,32.21l.26.18v-1.23h.26l-.13-.23h-4.96l.13.23h1.01v.21h-.81l-.04.09c.12.04.22.09.3.16.07.08.11.16.11.25,0,.04-.02.07-.05.1-.04.03-.09.05-.14.06-.01-.03-.04-.05-.06-.07-.03-.02-.06-.03-.08-.03-.04,0-.07.01-.09.04-.03.03-.04.06-.04.11,0,.06.03.11.09.15.06.05.13.07.22.07l.18.4.13-.07-.23-.34c.08-.01.15-.05.21-.1.05-.05.08-.11.08-.18,0-.07-.02-.14-.06-.21-.04-.07-.1-.13-.17-.18h.47v.65l.26.15v-1.23h.45v1.06l.26.18v-1.23h1.01v.38h-.59s-.06.01-.08.04c-.02.02-.04.05-.04.08,0,.07.03.15.09.23.06.08.12.12.17.12.02,0,.03,0,.04-.02.01,0,.02-.02.02-.04v-.1s0-.04.02-.05c0-.02.02-.02.04-.02h.32v.47l.26.15v-1.23h.47v.5h-.09s-.04,0-.05.02c-.02.01-.02.03-.02.05,0,.04.05.12.15.22.1.1.17.15.22.15.02,0,.03,0,.04-.02.01-.02.02-.04.02-.06v-.12h.44v.32ZM27.65,31.65v-.5h.44v.5h-.44Z"/>
          <path class="cls-1" d="M28.37,32.54c-.08-.07-.15-.1-.2-.1-.04,0-.08,0-.11.02-.03,0-.06.03-.09.06l.1.16s.05-.03.07-.04c.03-.01.05-.02.08-.02.07,0,.2.11.4.32l.16.16.09-.07c-.12-.13-.28-.29-.49-.48Z"/>
        </g>
        <path class="cls-1" d="M17.97,16.39s0,0,0,0c-.06.12-.04.22-.01.29.04.09.13.16.27.21,0,0,0,0,0,0,0,.16.15.28.4.35.01.12.14.28.4.28.03,0,.07,0,.12-.01.14-.04.24-.15.25-.27.25-.06.4-.19.4-.35,0-.02,0-.03,0-.05.18-.1.27-.23.27-.36,0-.04-.01-.07-.03-.1.26-.26.41-.52.48-.75h0s.01-.03.01-.05c.02-.09.03-.2.04-.22.02-.2,0-.41-.08-.6l-.07-.16c-.06-.11-.13-.22-.22-.3-.02-.02-.04-.04-.07-.06h0s-.09-.09-.09-.09c-.02-.02-.05-.04-.07-.06-.31-.28-.53-.49-.46-.97.08-.45-.06-.92-.25-1.03-.01,0-.03-.01-.04-.02,0-.07-.01-.11-.02-.11-.05-.09-.13-.12-.18-.13-.01,0-.03,0-.04,0-.09,0-.25.04-.32.3-.04.17-.04.4-.04.62,0,.04,0,.09,0,.12-.02.38-.37.84-.63,1.16,0,0-.2.22-.37.53-.13.23-.64,1.17.35,1.83ZM19.04,17.33c-.1,0-.19-.06-.19-.12,0-.01,0-.02,0-.03.03,0,.06,0,.09,0,.03,0,.06,0,.1,0,.06,0,.12,0,.18-.01,0,.01,0,.02,0,.03,0,.06-.09.12-.19.12ZM19.24,17.07s-.08,0-.12.01c-.03,0-.06,0-.08,0-.07,0-.14,0-.2-.01-.25-.03-.39-.12-.39-.19,0,0,0-.01,0-.02.18.04.39.05.53.05.27,0,.51-.03.64-.08.01.02.02.03.02.04,0,.07-.15.16-.39.19ZM18.08,14.25h.01c.33-.41.72-.91.74-1.37,0-.04,0-.09,0-.13,0-.21,0-.42.03-.56.03-.13.08-.14.12-.14,0,0,.01,0,.02,0,.03,0,.04.04.04.1,0,.04,0,.15,0,.27-.01.27-.03.63,0,.79.04.18.13.36.21.54.1.23.2.44.21.64.01.36-.16.39-.29.41-.06,0-.13.02-.13.09,0,.03.02.06.06.06.01,0,.03,0,.06-.01.04-.01.1-.03.17-.03.04,0,.08,0,.12.02.11.03.2.11.23.21.03.09.03.25-.13.47-.03.04-.11.1-.28.14-.05,0-.05.04-.05.06,0,.02.02.05.06.05.02,0,.03,0,.05,0,.25,0,.45.05.54.15.04.04.06.1.06.15,0,.11-.16.16-.26.18-.07.02-.12.03-.12.08v.02s.03.03.03.03h.02s.03,0,.06-.01c.07-.02.13-.03.17-.03.02,0,.03,0,.05,0,.03.01.04.03.04.04,0,.06-.09.16-.29.24h0s0,0,0,0c-.1.04-.32.07-.56.07-.37,0-.81-.07-.88-.22-.02-.04-.01-.08.02-.14,0,.01.02.02.04.03.25.13.57.15.75.15.12,0,.21,0,.24-.02.05,0,.12-.03.11-.08,0-.04-.03-.05-.08-.05,0,0-.02,0-.03,0-.04,0-.09,0-.16,0-.24,0-.47-.05-.73-.14-.13-.04-.38-.19-.44-.24-.19-.15-.3-.41-.3-.73-.02-.5.34-.93.5-1.12Z"/>
        <path class="cls-1" d="M23.05,20.55l-.18-.05c.08-.32.12-.66.12-.99,0-1.71-1.09-3.23-2.72-3.76l.06-.18c1.7.56,2.85,2.15,2.85,3.94,0,.35-.04.7-.13,1.04Z"/>
        <path class="cls-1" d="M15.01,20.55c-.09-.34-.13-.69-.13-1.04,0-1.7,1.02-3.21,2.59-3.85l.07.17c-1.5.61-2.48,2.05-2.48,3.68,0,.34.04.67.13.99l-.18.05Z"/>
        <g>
          <path class="cls-1" d="M18.54,29.49s-.06,0-.09.01c-.03,0-.05.02-.07.04-.02.02-.03.03-.03.05,0,.03.03.05.09.05.04,0,.1,0,.15-.03.06-.02.11-.04.14-.07h0s-.06-.03-.09-.04c-.03,0-.07-.01-.11-.02Z"/>
          <path class="cls-1" d="M18.51,28.95s-.03-.02-.06-.03c-.02,0-.04,0-.06.02-.02.01-.03.03-.05.04-.01.02-.02.04-.02.06,0,.04.03.08.08.12.07-.05.11-.1.11-.15,0-.02,0-.04-.02-.06Z"/>
          <path class="cls-1" d="M17.68,29.18s-.07-.04-.11-.05c-.05,0-.09,0-.13.01-.04.01-.07.03-.1.06s-.04.05-.04.08c0,.03,0,.06.03.08.03.02.06.04.1.04.05,0,.1,0,.17-.03.06-.03.11-.06.16-.1h0s-.05-.07-.09-.1Z"/>
          <path class="cls-1" d="M20.03,29.21s-.08-.03-.11-.03c-.05,0-.09.01-.12.04s-.06.05-.08.07-.03.06-.03.08c0,.03.02.06.05.08.03.02.07.03.11.02.05,0,.1-.02.16-.06.06-.04.1-.08.14-.13h0s-.06-.06-.11-.08Z"/>
          <rect class="cls-1" x="14.57" y="28.28" width=".33" height=".3" transform="translate(-16.91 33.28) rotate(-71.31)"/>
          <polygon class="cls-1" points="22.47 28.44 22.48 28.45 22.48 28.44 22.47 28.44"/>
          <rect class="cls-1" x="24.1" y="27.95" width=".3" height=".33" transform="translate(-8.79 11.17) rotate(-22.06)"/>
          <path class="cls-1" d="M23.27,28.82s.03.06.06.08c.03.02.06.03.09.03s.06,0,.09-.01c.1-.03.16-.08.19-.14s.04-.12.02-.18c0-.03-.03-.05-.05-.07-.03-.02-.05-.03-.08-.03-.1.04-.19.09-.25.14-.06.05-.08.11-.06.17Z"/>
          <path class="cls-1" d="M20.89,28.85l.03.21-.22.03s-.06.01-.08.02c-.02.01-.03.02-.02.04,0,.02.02.03.04.05.03.01.05.02.08.02.02,0,.03-.01.05-.02.06,0,.1,0,.13,0l.03.07v.03s-.06,0-.09,0c-.03,0-.06.01-.09.03s-.04.03-.06.05c-.01.02-.02.04-.02.05,0,.02.02.04.04.05.02,0,.05.01.09,0,.04,0,.07-.02.11-.04.04-.02.08-.05.11-.09.03-.03.06-.07.08-.1l-.06-.45-.16.02Z"/>
          <path class="cls-1" d="M27.92,27.1c-.07-.13-.14-.27-.19-.41.13-.09.26-.2.38-.31.41-.37.17-.86-.03-1.25l-.04-.08c-.1-.2-.08-.4-.06-.58.02-.17.03-.32-.07-.43-.09-.1-.26-.13-.54-.12h0s0,0,0,0c-.6.04-.97.53-1.05,1.39-.05.02-.1.05-.15.07-.37.17-.82.31-1.23.41h0c-.09.02-.16.04-.22.06,0,0,0,0,0,0h0c-.07.02-.11.04-.15.06-.24.15-.07.77,0,1.01-1.07.77-3.09,1.25-5.33,1.25-.08,0-.16,0-.24,0h0s0,0,0,0c0,0,0,0,0,0h0c-.08,0-.16,0-.24,0-2.24,0-4.26-.48-5.33-1.25.07-.23.24-.85,0-1.01-.03-.02-.08-.04-.15-.06h0s0,0,0,0c-.06-.02-.13-.04-.22-.06h0c-.42-.11-.86-.24-1.23-.41-.05-.02-.1-.05-.15-.07-.08-.86-.45-1.35-1.05-1.39,0,0,0,0,0,0h0c-.28-.01-.45.02-.54.12-.1.11-.09.26-.07.43.02.18.03.38-.06.58l-.04.08c-.19.39-.44.88-.03,1.25.12.11.25.21.38.31-.06.14-.13.27-.19.41-.12.23-.24.46-.3.73-.02.1-.08.91.09.97.03.01.09.01.13-.08.17-.34.46-.7.64-.71.03,0,.08,0,.13.08.04.07.08.17.12.25.05.13.08.19.14.18.07-.01.07-.09.07-.15,0-.39.11-.76.23-1.11.28.1.55.18.82.26,0,0,.01,0,.02,0l-.02.02c-.08.09-.2.2-.2.2-.08.09-.12.2-.11.31.01.1.07.2.16.27,1.54,1.1,4.08,1.76,6.78,1.76.08,0,.16,0,.24,0,.08,0,.17,0,.24,0,2.7,0,5.24-.66,6.78-1.76.09-.07.15-.16.16-.27.01-.11-.03-.22-.11-.31,0,0-.12-.12-.2-.2l-.02-.02s.01,0,.02,0c.27-.07.55-.16.82-.26.12.35.23.72.23,1.11,0,.06,0,.14.07.15.07.01.09-.05.14-.18.03-.08.07-.18.12-.25.05-.08.1-.08.13-.08.18.01.47.37.64.71.05.1.1.09.13.08.17-.06.11-.87.09-.97-.06-.26-.18-.5-.3-.73ZM10.91,28.18c-.03-.06-.05-.12-.09-.17-.08-.13-.18-.15-.25-.14-.27.02-.57.44-.72.73-.03-.18-.03-.6,0-.74.06-.25.18-.48.29-.7.06-.13.13-.26.19-.39.25.17.52.31.82.43-.11.31-.21.63-.23.98ZM10.42,24.15s.02-.08.15-.08c.63.04.85.64.91,1.18-.71-.4-1.11-.9-1.07-1.1ZM13.04,26.5c.03-.07.06-.09.14-.09.03,0,.06,0,.1,0,.03,0,.06,0,.08,0l-.06.24s-.03.1-.04.15c-.01,0-.02-.02-.03-.03-.14-.11-.22-.19-.19-.28ZM16.44,28.72l-.13-.03-.17.79h-.02s-.1-.09-.1-.09l.16-.72-.14-.03h0s-.15-.04-.15-.04l-.21.78h-.02s-.09-.1-.09-.1l.12-.44-.2-.05c-.05-.01-.09-.01-.12,0-.03.02-.05.05-.06.09-.02.09.01.21.1.36l-.06.03c-.06-.09-.1-.17-.14-.25-.03-.08-.04-.16-.02-.23.02-.06.05-.11.09-.13s.11-.03.2,0l.23.06.04-.15-.54-.14h0s-.15-.05-.15-.05l-.22.66s.01,0,.02,0l.02.12c-.06-.02-.12-.03-.16-.02-.04,0-.07.02-.08.05,0,.02,0,.03.01.05s.03.03.06.04c.02,0,.04,0,.07,0,.03,0,.05,0,.07,0l.03.13s-.04,0-.07,0c-.03,0-.05,0-.07,0-.03,0-.07-.03-.1-.06s-.06-.07-.07-.11c-.02-.04-.02-.08,0-.11,0-.03.03-.05.05-.07.02-.01.05-.03.08-.03h0s.09-.28.09-.28l-.28-.1s-.03.06-.05.07-.05.02-.08,0c-.03-.01-.05-.03-.06-.06-.01-.03-.02-.07-.01-.1,0-.03,0-.06.01-.08,0,0,0-.02,0-.02l.1.03.11-.31-.14-.05h0s0,0,0,0h0s-.14-.05-.14-.05l-.31.74h-.02s-.08-.11-.08-.11l.11-.26h0s-.04,0-.07-.01c-.03-.01-.05-.03-.07-.04-.02-.02-.04-.04-.05-.08h0s0,.07-.02.11c-.03.06-.06.1-.12.12-.05.02-.11.02-.17,0-.09-.04-.15-.1-.18-.18-.04-.09-.06-.18-.07-.29h.05c.01.07.04.14.07.2.03.06.08.11.13.13.04.02.08.02.12,0,.04-.01.06-.04.08-.07.02-.05.02-.09,0-.14-.05,0-.11-.02-.18-.04v-.11s.01-.02.01-.02c.09.03.15.04.19.04.05,0,.09-.03.11-.08.01-.03,0-.05,0-.08-.01-.03-.04-.05-.07-.06-.03-.01-.07-.02-.1-.02s-.08.01-.12.03v-.15s.07-.01.11-.01c.05,0,.08,0,.11.02.03.01.06.04.09.09.03.04.05.09.05.14,0,.05,0,.09,0,.13-.02.06-.06.1-.12.12.02.02.04.05.07.07s.05.04.08.05c.05.02.09.02.14.01l.12-.29-.17-.07v-.11s0-.02,0-.02l.43.18h0s.83.28.83.28l.82.22.4.09.03.1v.02ZM18.09,28.95h-.14s-.09.79-.09.79h-.02s-.11-.08-.11-.08l.03-.2h0s-.1.05-.14.06c-.04.01-.08.02-.12.01-.05,0-.09-.02-.13-.04-.04-.02-.07-.06-.09-.1-.02-.04-.03-.09-.02-.14,0-.06.02-.1.05-.14.03-.04.06-.07.1-.09.04-.02.08-.03.12-.02.05,0,.1.03.14.07.04.04.08.08.11.13h0s.03-.27.03-.27l-.6-.06h0s-.15-.03-.15-.03l-.13.79h-.02s-.1-.09-.1-.09l.12-.73-.14-.02-.03-.1v-.02s.2.03.2.03c-.06-.11-.08-.19-.07-.26,0-.04.02-.07.05-.1.03-.03.07-.05.11-.06s.1-.01.15,0c.09.01.19.07.28.15.1.09.2.19.3.32l-.04.04c-.09-.1-.18-.19-.27-.26-.08-.07-.16-.11-.24-.12h0c-.06,0-.1,0-.14.02-.04.02-.06.06-.07.11,0,.03,0,.06,0,.1,0,.03.01.06.02.09l.15.03.86.09.04.1v.02ZM24.73,28.61l-.13-.02-.11-.27-.28.11s.01.06,0,.09c0,.03-.02.05-.05.06-.03.01-.06,0-.09,0-.03-.02-.06-.04-.08-.07-.02-.02-.03-.05-.04-.07,0,0,0-.02,0-.02l.1-.04-.12-.31-.14.06h0s-.27.09-.27.09c.04.03.06.06.07.08,0,.03,0,.07,0,.11.06.02.11.04.15.08.04.03.07.08.09.13.02.05.02.11.01.16-.01.05-.04.1-.08.14s-.09.07-.16.09c-.06.02-.11.02-.17,0-.06-.01-.1-.04-.14-.08s-.07-.09-.09-.14c-.03-.09-.02-.16.03-.23.05-.07.12-.12.23-.16,0-.03,0-.06,0-.08,0-.02-.02-.04-.05-.06l-.43.14h0s-.13.04-.13.04l.22.77h-.02s-.13-.03-.13-.03l-.2-.71-.1.03h0s-.18.05-.18.05l.18.78h-.02s-.13-.03-.13-.03l-.06-.24h0s-.09.07-.14.08c-.03,0-.06,0-.09-.01-.03-.01-.07-.03-.11-.06-.03-.02-.06-.04-.08-.06-.02-.02-.03-.04-.03-.07l-.06-.26h-.01s0,0,0,0l-.25.05.15.79h-.02s-.13-.04-.13-.04l-.14-.73-.14.03h0s-.14.03-.14.03l.11.8h-.02s-.12-.05-.12-.05v-.08s-.01,0-.01,0c-.04.04-.09.07-.12.09-.04.02-.08.04-.12.04-.04,0-.08,0-.11,0s-.06-.02-.09-.04c-.03-.02-.05-.04-.08-.06-.02-.03-.04-.05-.04-.08,0-.03,0-.06.01-.09.01-.03.03-.05.06-.07-.05-.02-.09-.03-.11-.05-.03-.02-.04-.04-.05-.08,0-.05,0-.08.03-.11.03-.03.07-.04.12-.05l.14-.02v-.09s-.35.05-.35.05h0s-.16.01-.16.01l.05.8h-.02s-.13-.06-.13-.06v-.2s-.01,0-.01,0c-.04.04-.09.07-.12.09-.04.02-.08.03-.12.04-.05,0-.09,0-.13-.02-.04-.02-.08-.04-.11-.08-.03-.04-.05-.08-.05-.13,0-.06,0-.11.02-.15.02-.04.05-.08.08-.1s.07-.04.12-.04c.05,0,.1,0,.15.04.05.03.1.07.14.11h0s-.02-.27-.02-.27l-.38.02h0,0s-.25.01-.25.01h0s-.13,0-.13,0v.8s0,0,0,0l-.12-.06v-.74s-.12,0-.12,0h0s-.03,0-.03,0h0s-.15,0-.15,0l-.03.84h-.03s-.11-.07-.11-.07v-.08s0,0,0,0c-.05.02-.09.04-.13.05-.04.01-.08.02-.12.02-.03,0-.06,0-.09-.02-.03-.01-.06-.04-.08-.06-.02-.03-.03-.06-.03-.09,0-.03.01-.06.04-.09.02-.03.05-.05.08-.07.03-.02.06-.03.09-.02.04,0,.09.01.13.03.05.02.09.05.13.07h0s0-.1,0-.1c-.12-.03-.22-.07-.31-.12-.03.02-.07.05-.12.08-.04.03-.09.05-.12.07l-.11-.11c.11-.04.19-.08.25-.11-.09-.06-.13-.13-.13-.2,0-.03.01-.06.03-.08s.05-.05.08-.06c.03-.02.06-.02.09-.02.03,0,.07.01.1.04.03.02.06.05.08.08.02.03.03.07.03.1,0,.05-.04.11-.12.17.08.04.17.07.25.09v-.33s-.08,0-.08,0l-.05-.1v-.02s.39,0,.39,0h.19c-.08-.1-.12-.18-.12-.25,0-.04.01-.08.03-.11s.06-.06.1-.08c.04-.02.09-.03.15-.03.09,0,.2.03.31.1.11.07.23.16.35.26l-.04.05c-.11-.09-.21-.16-.31-.21-.09-.05-.18-.08-.26-.08h0c-.06,0-.1.02-.14.04s-.05.07-.05.12c0,.03,0,.06.02.09.01.03.02.06.04.08h.37s.71-.06.71-.06l.82-.11h0l.59-.11.62-.15.25-.07c-.07-.08-.13-.15-.19-.2-.06-.05-.12-.07-.17-.06-.03,0-.05.03-.07.06-.01.03-.01.06,0,.09,0,.03.02.05.04.07.02.02.04.04.05.05h0s-.05.05-.05.05c-.05-.02-.09-.04-.13-.07-.04-.03-.06-.07-.08-.12,0-.03,0-.06,0-.1s.03-.06.06-.09c.03-.03.06-.04.1-.06.06-.02.12,0,.18.02.06.03.11.08.16.13.05.05.1.12.16.2l.25-.07h0s.73-.24.73-.24h0s.76-.31.76-.31l.08.07v.02s-.12.05-.12.05l.3.75h-.02ZM24.71,26.78s-.02.02-.03.03c-.01-.05-.03-.1-.04-.15-.03-.08-.05-.17-.06-.24.03,0,.06,0,.08,0,.04,0,.07,0,.1,0,.07,0,.11.02.14.09.03.1-.05.17-.19.28ZM26.45,25.25c.06-.54.28-1.14.91-1.18.14,0,.15.06.15.08.04.2-.36.71-1.07,1.1ZM28.09,28.6c-.15-.29-.45-.72-.72-.73-.07,0-.17.02-.25.14-.03.05-.06.11-.09.17-.03-.35-.13-.67-.23-.98.3-.12.57-.26.82-.43.06.13.12.26.19.39.11.22.23.45.29.7.03.14.03.56,0,.74Z"/>
          <path class="cls-1" d="M22,28.65l.07.31s.02.05.04.06c.02,0,.04,0,.07,0h0s.06-.02.09-.04c.03-.02.05-.04.07-.07l-.08-.34-.27.06Z"/>
        </g>
      </g>
    </g>
    <g>
      <path class="cls-1" d="M9.54,36.16v-1.67c0-.12-.03-.19-.06-.22-.02-.02-.04-.03-.06-.04h.91c.66,0,1.22.46,1.22,1.13,0,.22-.06.44-.17.6-.15.22-.44.49-1.13.49-.26,0-.65-.05-.69-.05s-.07,0-.1,0c-.01,0-.03,0-.04,0,.1-.05.12-.14.12-.26ZM9.77,36.11c0,.12.09.28.52.28.75,0,1.02-.51,1.02-1.01,0-.59-.42-1.09-1.09-1.09-.22,0-.37.01-.45.02v1.8Z"/>
      <path class="cls-1" d="M12.29,36.37s.06-.1.06-.21v-1.67c0-.12-.03-.18-.06-.22-.02-.02-.04-.04-.06-.04h1.07l-.02.23s0-.03-.01-.04c-.01-.03-.03-.05-.05-.07-.06-.04-.37-.04-.44-.04h-.2v.9h.47c.1,0,.14-.03.18-.05.02-.01.04-.03.05-.05,0,.03-.02.28-.02.32,0-.01,0-.03-.01-.04-.01-.02-.03-.05-.06-.06-.06-.03-.23-.02-.37-.02h-.23v.83c0,.1.02.23.33.23.22,0,.29-.04.35-.09.03-.03.06-.05.09-.09.01-.01.03-.03.04-.05,0,.03-.02.21-.07.24-.06.04-.11.05-.41.05-.15,0-.32-.01-.43-.03-.06-.01-.12,0-.17,0-.03,0-.06,0-.08,0,.02-.01.04-.03.06-.05Z"/>
      <path class="cls-1" d="M14.09,36.37s.06-.1.06-.21v-1.67c0-.12-.03-.18-.06-.22-.02-.02-.04-.04-.06-.04h1.07l-.02.23s0-.03-.01-.04c-.01-.03-.03-.05-.05-.07-.06-.04-.37-.04-.44-.04h-.2v.9h.47c.1,0,.14-.03.18-.05.02-.01.04-.03.05-.05,0,.03-.02.28-.02.32,0-.01,0-.03-.01-.04-.01-.02-.03-.05-.06-.06-.06-.03-.23-.02-.37-.02h-.23v.83c0,.1.02.23.33.23.22,0,.29-.04.35-.09.03-.03.06-.05.09-.09.01-.01.03-.03.04-.05,0,.03-.02.21-.07.24-.06.04-.11.05-.41.05-.15,0-.32-.01-.43-.03-.06-.01-.12,0-.17,0-.03,0-.06,0-.08,0,.02-.01.04-.03.06-.05Z"/>
      <path class="cls-1" d="M16.04,36.09c-.01.15,0,.23.02.28.01.03.03.04.05.05h-.4s.05-.03.07-.05c.04-.04.08-.12.1-.27l.21-1.91.91,1.85.9-1.85.2,1.89c.01.15.05.23.09.27.02.03.05.05.07.06h-.46s.04-.03.05-.05c.02-.05.04-.13.02-.28l-.12-1.26-.78,1.63-.8-1.63-.11,1.26Z"/>
      <path class="cls-1" d="M18.84,36.37s.06-.1.06-.21v-1.67c0-.12-.03-.18-.06-.22-.02-.02-.04-.04-.06-.04h1.07l-.02.23s0-.03-.01-.04c-.01-.03-.03-.05-.05-.07-.06-.04-.37-.04-.44-.04h-.2v.9h.47c.1,0,.14-.03.18-.05.02-.01.04-.03.05-.05,0,.03-.02.28-.02.32,0-.01,0-.03-.01-.04-.01-.02-.03-.05-.06-.06-.06-.03-.23-.02-.37-.02h-.23v.83c0,.1.02.23.33.23.22,0,.29-.04.35-.09.03-.03.06-.05.09-.09.01-.01.03-.03.04-.05,0,.03-.02.21-.07.24-.06.04-.11.05-.41.05-.15,0-.32-.01-.43-.03-.06-.01-.12,0-.17,0-.03,0-.06,0-.08,0,.02-.01.04-.03.06-.05Z"/>
      <path class="cls-1" d="M20.71,36.16v-1.67c0-.12-.03-.19-.06-.22-.02-.02-.04-.03-.06-.04h.91c.66,0,1.22.46,1.22,1.13,0,.22-.06.44-.17.6-.15.22-.44.49-1.13.49-.26,0-.65-.05-.69-.05s-.07,0-.1,0c-.01,0-.03,0-.04,0,.1-.05.12-.14.12-.26ZM20.94,36.11c0,.12.09.28.52.28.75,0,1.02-.51,1.02-1.01,0-.59-.42-1.09-1.09-1.09-.22,0-.37.01-.45.02v1.8Z"/>
      <path class="cls-1" d="M25.06,34.32v1.84c0,.13.03.2.06.23.02.02.04.03.06.03h-.45s.11-.01.11-.26v-1.84h-.49c-.25,0-.3.12-.3.12v-.04s.01-.06.02-.1l.02-.14s0,.01.02.02c.02.01.05.02.09.03.04.01.11.02.16.02h1.21s.11,0,.17-.02c.04,0,.06-.02.09-.05l-.04.27s-.01-.04-.03-.06c-.03-.03-.09-.06-.2-.06h-.5Z"/>
      <path class="cls-1" d="M27.32,34.18c.59,0,1.11.49,1.11,1.16,0,.61-.47,1.14-1.1,1.14-.6,0-1.12-.49-1.12-1.17,0-.6.49-1.13,1.11-1.13ZM27.32,34.26c-.51,0-.86.45-.86,1.02,0,.71.43,1.11.89,1.11.48,0,.85-.39.85-.98,0-.52-.27-1.15-.87-1.15Z"/>
      <path class="cls-1" d="M29.96,36.42c.11-.07.12-.15.12-.26v-1.67c0-.12-.03-.18-.06-.22-.02-.02-.04-.04-.06-.04h.55c.36,0,.56.19.56.51,0,.29-.25.47-.36.51.05,0,.09.02.13.04.07.03.17.07.26.14.11.09.21.23.21.44s-.09.33-.2.43c-.14.13-.34.16-.49.16-.15,0-.3-.01-.42-.03-.07-.01-.13-.01-.18-.01h-.07ZM30.31,35.23h.22c.16,0,.34-.16.34-.48,0-.28-.18-.41-.38-.43-.06-.01-.12-.01-.18,0v.92ZM30.31,36.15c0,.07.02.24.33.24s.45-.22.45-.49c0-.39-.27-.59-.58-.59h-.2v.84Z"/>
      <path class="cls-1" d="M32.02,36.37s.06-.1.06-.21v-1.67c0-.12-.03-.18-.06-.22-.02-.02-.04-.04-.06-.04h1.07l-.02.23s0-.03-.01-.04c-.01-.03-.03-.05-.05-.07-.06-.04-.37-.04-.44-.04h-.2v.9h.47c.1,0,.14-.03.18-.05.02-.01.04-.03.05-.05,0,.03-.02.28-.02.32,0-.01,0-.03-.01-.04-.01-.02-.03-.05-.06-.06-.06-.03-.23-.02-.37-.02h-.23v.83c0,.1.02.23.33.23.22,0,.29-.04.35-.09.03-.03.06-.05.09-.09.01-.01.03-.03.04-.05,0,.03-.02.21-.07.24-.06.04-.11.05-.41.05-.15,0-.32-.01-.43-.03-.06-.01-.12,0-.17,0-.03,0-.06,0-.08,0,.02-.01.04-.03.06-.05Z"/>
      <path class="cls-1" d="M36.47,36.42v-.24c-.14.11-.39.27-.71.27s-.52-.06-.7-.22c-.2-.16-.33-.41-.33-.78v-.99c0-.1-.03-.16-.05-.19-.02-.02-.04-.03-.05-.04h.45s-.04.02-.06.04c-.03.03-.05.09-.05.19v1c0,.24.04.49.22.69.13.13.3.21.59.21s.58-.2.7-.32v-1.59c0-.1-.03-.16-.06-.2-.02-.02-.04-.03-.05-.04h.45s-.04.02-.06.04c-.03.03-.05.09-.05.2v1.7c0,.11.03.17.05.21.02.02.04.04.06.05h-.34Z"/>
      <path class="cls-1" d="M37.77,34.66v1.44c0,.14.03.22.07.27.02.03.04.04.07.05h-.41s.04-.03.06-.05c.03-.04.06-.12.06-.27v-1.91l1.74,1.8v-1.47c0-.14-.04-.21-.08-.25-.02-.03-.05-.04-.07-.05h.44s-.05.02-.07.05c-.04.04-.07.11-.07.25v1.93l-1.73-1.8Z"/>
      <path class="cls-1" d="M40.78,34.23s-.04.02-.06.04c-.03.04-.05.1-.05.21v1.67c0,.11.02.17.05.21.02.02.04.04.06.05h-.45s.04-.02.05-.04c.02-.04.05-.1.05-.22v-1.67c0-.12-.03-.18-.05-.22-.02-.02-.04-.04-.05-.04h.45Z"/>
      <path class="cls-1" d="M43.46,34.23s-.06.02-.1.05c-.06.04-.12.12-.19.27l-.82,1.92-.82-1.97c-.06-.14-.14-.25-.24-.26h.5s-.04.02-.05.04c-.02.03-.02.1.04.23l.63,1.52.63-1.52c.05-.12.05-.18.03-.22-.01-.02-.02-.04-.04-.04h.42Z"/>
      <path class="cls-1" d="M44.01,36.37s.06-.1.06-.21v-1.67c0-.12-.03-.18-.06-.22-.02-.02-.04-.04-.06-.04h1.07l-.02.23s0-.03-.01-.04c-.01-.03-.03-.05-.05-.07-.06-.04-.37-.04-.44-.04h-.2v.9h.47c.1,0,.14-.03.18-.05.02-.01.04-.03.05-.05,0,.03-.02.28-.02.32,0-.01,0-.03-.01-.04-.01-.02-.03-.05-.06-.06-.06-.03-.23-.02-.37-.02h-.23v.83c0,.1.02.23.33.23.22,0,.29-.04.35-.09.03-.03.06-.05.09-.09.01-.01.03-.03.04-.05,0,.03-.02.21-.07.24-.06.04-.11.05-.41.05-.15,0-.32-.01-.43-.03-.06-.01-.12,0-.17,0-.03,0-.06,0-.08,0,.02-.01.04-.03.06-.05Z"/>
      <path class="cls-1" d="M47.17,36.16c.12.18.26.36.49.36h-.05s-.07.03-.12.03c-.15,0-.35-.06-.52-.32l-.45-.73c-.14.03-.32.02-.42.02v.63c0,.12.02.18.05.22.02.02.04.04.06.04h-.46s.04-.01.06-.04c.03-.03.06-.1.06-.22v-1.7c0-.1-.03-.16-.06-.2-.02-.02-.04-.03-.06-.04h.63c.34,0,.69.22.69.6,0,.21-.13.48-.36.61l.45.72ZM46.88,34.94c0-.57-.49-.64-.64-.64-.05,0-.07,0-.1,0h-.03v1.13s.09.01.17.01c.47,0,.59-.28.59-.51Z"/>
      <path class="cls-1" d="M48.33,36.45c-.21,0-.37-.02-.45-.1-.05-.03-.06-.13-.06-.2,0-.03,0-.06,0-.08,0-.01,0-.02,0-.04.04.18.2.32.5.32s.48-.2.48-.4c0-.54-.9-.55-.9-1.18,0-.52.47-.58.59-.58s.25.03.38.03c.05,0,.07,0,.07,0-.01.07-.01.15-.02.22v.11c-.06-.21-.21-.27-.43-.27-.3,0-.42.24-.42.39,0,.18.11.33.41.52.31.2.49.37.49.65,0,.34-.31.6-.65.6Z"/>
      <path class="cls-1" d="M50.08,34.23s-.04.02-.06.04c-.03.04-.05.1-.05.21v1.67c0,.11.02.17.05.21.02.02.04.04.06.05h-.45s.04-.02.05-.04c.02-.04.05-.1.05-.22v-1.67c0-.12-.03-.18-.05-.22-.02-.02-.04-.04-.05-.04h.45Z"/>
      <path class="cls-1" d="M51.58,34.32v1.84c0,.13.03.2.06.23.02.02.04.03.06.03h-.45s.11-.01.11-.26v-1.84h-.49c-.25,0-.3.12-.3.12v-.04s.01-.06.02-.1l.02-.14s0,.01.02.02c.02.01.05.02.09.03.04.01.11.02.16.02h1.21s.11,0,.17-.02c.04,0,.06-.02.09-.05l-.04.27s-.01-.04-.03-.06c-.03-.03-.09-.06-.2-.06h-.5Z"/>
      <path class="cls-1" d="M54.3,34.29s-.02-.04-.04-.05h.41s-.05.02-.08.05c-.05.04-.12.1-.21.22-.1.14-.25.35-.38.52l-.22.31v.84c0,.11.03.17.05.21.01.02.03.04.05.04h-.44s.04-.02.05-.04c.03-.04.06-.1.06-.21v-.78l-.29-.4c-.15-.21-.32-.43-.37-.49-.19-.22-.24-.25-.27-.26h.55s-.05.03-.06.05c-.02.04-.03.1.05.21.07.1.2.28.33.45l.22.31c.08-.12.16-.22.23-.33.12-.17.26-.36.31-.43.07-.1.07-.17.06-.21Z"/>
      <path class="cls-1" d="M57.8,36.42v-.24c-.14.11-.39.27-.71.27s-.52-.06-.7-.22c-.2-.16-.33-.41-.33-.78v-.99c0-.1-.03-.16-.05-.19-.02-.02-.04-.03-.05-.04h.45s-.04.02-.06.04c-.03.03-.05.09-.05.19v1c0,.24.04.49.22.69.13.13.3.21.59.21s.58-.2.7-.32v-1.59c0-.1-.03-.16-.06-.2-.02-.02-.04-.03-.05-.04h.45s-.04.02-.06.04c-.03.03-.05.09-.05.2v1.7c0,.11.03.17.05.21.02.02.04.04.06.05h-.34Z"/>
      <path class="cls-1" d="M59.09,34.66v1.44c0,.14.03.22.07.27.02.03.04.04.07.05h-.41s.04-.03.06-.05c.03-.04.06-.12.06-.27v-1.91l1.74,1.8v-1.47c0-.14-.04-.21-.08-.25-.02-.03-.05-.04-.07-.05h.44s-.05.02-.07.05c-.04.04-.07.11-.07.25v1.93l-1.73-1.8Z"/>
      <path class="cls-1" d="M61.77,36.16v-1.67c0-.12-.03-.19-.06-.22-.02-.02-.04-.03-.06-.04h.91c.66,0,1.22.46,1.22,1.13,0,.22-.06.44-.17.6-.15.22-.44.49-1.13.49-.26,0-.65-.05-.69-.05s-.07,0-.1,0c-.01,0-.03,0-.04,0,.1-.05.12-.14.12-.26ZM62,36.11c0,.12.09.28.52.28.75,0,1.02-.51,1.02-1.01,0-.59-.42-1.09-1.09-1.09-.22,0-.37.01-.45.02v1.8Z"/>
      <path class="cls-1" d="M64.52,36.37s.06-.1.06-.21v-1.67c0-.12-.03-.18-.06-.22-.02-.02-.04-.04-.06-.04h1.07l-.02.23s0-.03-.01-.04c-.01-.03-.03-.05-.05-.07-.06-.04-.37-.04-.44-.04h-.2v.9h.47c.1,0,.14-.03.18-.05.02-.01.04-.03.05-.05,0,.03-.02.28-.02.32,0-.01,0-.03-.01-.04-.01-.02-.03-.05-.06-.06-.06-.03-.23-.02-.37-.02h-.23v.83c0,.1.02.23.33.23.22,0,.29-.04.35-.09.03-.03.06-.05.09-.09.01-.01.03-.03.04-.05,0,.03-.03.21-.07.24-.06.04-.11.05-.4.05-.15,0-.32-.01-.43-.03-.06-.01-.12,0-.17,0-.03,0-.06,0-.08,0,.02-.01.04-.03.06-.05Z"/>
      <path class="cls-1" d="M67.69,36.16c.12.18.26.36.49.36h-.05s-.07.03-.12.03c-.15,0-.35-.06-.52-.32l-.45-.73c-.14.03-.32.02-.42.02v.63c0,.12.03.18.05.22.02.02.04.04.06.04h-.46s.04-.01.06-.04c.03-.03.06-.1.06-.22v-1.7c0-.1-.03-.16-.06-.2-.02-.02-.04-.03-.06-.04h.63c.34,0,.69.22.69.6,0,.21-.13.48-.36.61l.45.72ZM67.39,34.94c0-.57-.49-.64-.64-.64-.05,0-.07,0-.1,0h-.03v1.13s.09.01.17.01c.47,0,.59-.28.59-.51Z"/>
      <path class="cls-1" d="M69.68,36.45c-.21,0-.37-.02-.45-.1-.05-.03-.06-.13-.06-.2,0-.03,0-.06,0-.08,0-.01,0-.02,0-.04.04.18.2.32.5.32s.48-.2.48-.4c0-.54-.9-.55-.9-1.18,0-.52.47-.58.59-.58s.25.03.38.03c.05,0,.07,0,.07,0-.01.07-.01.15-.02.22v.11c-.06-.21-.21-.27-.43-.27-.3,0-.42.24-.42.39,0,.18.11.33.41.52.31.2.49.37.49.65,0,.34-.31.6-.65.6Z"/>
      <path class="cls-1" d="M71.03,36.37s.06-.1.06-.21v-1.67c0-.12-.03-.18-.06-.22-.02-.02-.04-.04-.06-.04h1.07l-.02.23s0-.03-.01-.04c-.01-.03-.03-.05-.05-.07-.06-.04-.37-.04-.44-.04h-.2v.9h.47c.1,0,.14-.03.18-.05.02-.01.04-.03.05-.05,0,.03-.02.28-.02.32,0-.01,0-.03-.01-.04-.01-.02-.03-.05-.06-.06-.06-.03-.23-.02-.37-.02h-.23v.83c0,.1.02.23.33.23.22,0,.29-.04.35-.09.03-.03.06-.05.09-.09.01-.01.03-.03.04-.05,0,.03-.02.21-.07.24-.06.04-.11.05-.41.05-.15,0-.32-.01-.43-.03-.06-.01-.12,0-.17,0-.03,0-.06,0-.08,0,.02-.01.04-.03.06-.05Z"/>
      <path class="cls-1" d="M72.79,35.3c0-.23.06-.45.18-.63.15-.22.44-.47.91-.47.33,0,.53.05.82.11l-.03.3c-.03-.06-.09-.12-.15-.17-.12-.09-.31-.17-.62-.17-.55,0-.87.47-.87.99s.36,1.09,1.01,1.09c.25,0,.55-.06.71-.24-.01.12-.06.32-.76.32-.65,0-1.19-.49-1.19-1.15Z"/>
      <path class="cls-1" d="M76.2,34.32v1.84c0,.13.03.2.06.23.02.02.04.03.06.03h-.45s.11-.01.11-.26v-1.84h-.49c-.25,0-.3.12-.3.12v-.04s.01-.06.02-.1l.02-.14s0,.01.02.02c.02.01.05.02.09.03.04.01.11.02.16.02h1.21s.11,0,.17-.02c.04,0,.06-.02.09-.05l-.04.27s-.01-.04-.03-.06c-.03-.03-.09-.06-.2-.06h-.5Z"/>
      <path class="cls-1" d="M77.92,34.23s-.04.02-.06.04c-.03.04-.05.1-.05.21v1.67c0,.11.03.17.05.21.02.02.04.04.06.05h-.45s.04-.02.05-.04c.02-.04.05-.1.05-.22v-1.67c0-.12-.03-.18-.05-.22-.02-.02-.04-.04-.05-.04h.45Z"/>
      <path class="cls-1" d="M79.72,34.18c.59,0,1.11.49,1.11,1.16,0,.61-.47,1.14-1.1,1.14-.6,0-1.12-.49-1.12-1.17,0-.6.49-1.13,1.11-1.13ZM79.72,34.26c-.51,0-.86.45-.86,1.02,0,.71.43,1.11.89,1.11.48,0,.85-.39.85-.98,0-.52-.27-1.15-.87-1.15Z"/>
      <path class="cls-1" d="M81.79,34.66v1.44c0,.14.03.22.07.27.02.03.04.04.07.05h-.41s.04-.03.06-.05c.03-.04.06-.12.06-.27v-1.91l1.74,1.8v-1.47c0-.14-.04-.21-.08-.25-.03-.03-.05-.04-.07-.05h.44s-.05.02-.07.05c-.04.04-.07.11-.07.25v1.93l-1.73-1.8Z"/>
      <path class="cls-1" d="M86.6,35.7c0,.22-.1.4-.24.51-.18.17-.37.23-.58.23-.16,0-.29-.03-.37-.05-.05-.01-.09-.03-.13-.05l-.04-.18s.07.07.13.1c.09.05.22.1.41.1.35,0,.6-.32.58-.66-.03-.44-.33-.56-.47-.58-.06-.01-.12,0-.18,0h-.09s.54-.69.54-.69h-.65c-.06,0-.11.03-.14.05l-.05.05.07-.31h1.1l-.33.4c-.16.2-.33.41-.33.4.31.01.75.17.75.67Z"/>
      <path class="cls-1" d="M89.27,34.18c.59,0,1.11.49,1.11,1.16,0,.61-.47,1.14-1.1,1.14-.6,0-1.12-.49-1.12-1.17,0-.6.49-1.13,1.11-1.13ZM89.27,34.26c-.51,0-.86.45-.86,1.02,0,.71.43,1.11.89,1.11.48,0,.85-.39.85-.98,0-.52-.27-1.15-.87-1.15Z"/>
      <path class="cls-1" d="M91.07,36.42s.04-.02.06-.04c.03-.04.06-.1.06-.22v-1.67c0-.11-.03-.17-.06-.21-.02-.02-.04-.04-.06-.04h1.07l-.02.24h0s-.01-.08-.07-.11c-.06-.04-.38-.04-.43-.04h-.2v.95h.43c.1,0,.15-.03.18-.05.02-.01.03-.03.04-.05h0l-.02.32s0-.03-.01-.04c-.01-.02-.04-.05-.06-.06-.05-.03-.23-.02-.37-.02h-.18v.81c0,.23.13.26.14.26h-.49Z"/>
      <path class="cls-1" d="M95.53,36.42v-.24c-.14.11-.39.27-.71.27s-.52-.06-.7-.22c-.2-.16-.33-.41-.33-.78v-.99c0-.1-.03-.16-.05-.19-.02-.02-.04-.03-.05-.04h.45s-.04.02-.06.04c-.03.03-.05.09-.05.19v1c0,.24.04.49.22.69.13.13.3.21.59.21s.58-.2.7-.32v-1.59c0-.1-.03-.16-.06-.2-.02-.02-.04-.03-.05-.04h.45s-.04.02-.06.04c-.03.03-.05.09-.05.2v1.7c0,.11.03.17.05.21.02.02.04.04.06.05h-.34Z"/>
      <path class="cls-1" d="M96.57,35.29c0-.23.06-.44.18-.63.15-.22.44-.47.9-.47.37,0,.53.04.82.11l-.02.3c-.04-.06-.09-.12-.16-.17-.12-.09-.31-.17-.62-.17-.55,0-.87.47-.87.99s.36,1.1,1.01,1.1c.24,0,.4-.04.49-.08v-.74c0-.11-.03-.16-.05-.19-.01-.02-.03-.03-.05-.03h.42s-.04.01-.05.03c-.02.03-.05.08-.05.19v.79c-.13.06-.37.12-.77.12-.66,0-1.19-.49-1.19-1.16Z"/>
      <path class="cls-1" d="M99.31,35.3c0-.23.06-.45.18-.63.15-.22.44-.47.91-.47.33,0,.53.05.82.11l-.03.3c-.03-.06-.09-.12-.15-.17-.12-.09-.31-.17-.62-.17-.55,0-.87.47-.87.99s.36,1.09,1.01,1.09c.25,0,.55-.06.71-.24-.01.12-.06.32-.76.32-.65,0-1.19-.49-1.19-1.15Z"/>
      <path class="cls-1" d="M102.97,36.15c-.05.13-.04.23.01.27h-.39c.06-.03.14-.07.22-.29l.74-1.95.81,1.97c.09.22.17.24.23.27h-.48c.06-.04.07-.1.02-.23l-.26-.68h-.66l-.23.64ZM103.54,34.63l-.3.8h.6l-.3-.8Z"/>
      <path class="cls-1" d="M105,35.3c0-.23.06-.45.18-.63.15-.22.44-.47.91-.47.33,0,.53.05.82.11l-.03.3c-.03-.06-.09-.12-.15-.17-.12-.09-.31-.17-.62-.17-.55,0-.87.47-.87.99s.36,1.09,1.01,1.09c.25,0,.55-.06.71-.24-.01.12-.06.32-.76.32-.65,0-1.19-.49-1.19-1.15Z"/>
      <path class="cls-1" d="M108.41,34.32v1.84c0,.13.03.2.06.23.02.02.04.03.06.03h-.45s.11-.01.11-.26v-1.84h-.49c-.25,0-.3.12-.3.12v-.04s.01-.06.02-.1l.02-.14s0,.01.02.02c.02.01.05.02.09.03.04.01.11.02.16.02h1.21s.11,0,.17-.02c.04,0,.06-.02.09-.05l-.04.27s-.01-.04-.03-.06c-.03-.03-.09-.06-.2-.06h-.5Z"/>
      <path class="cls-1" d="M109.68,36.32c0,.07-.05.16-.1.23-.03.04-.06.08-.1.12.02-.04.03-.08.04-.11.02-.06.03-.11,0-.12-.02-.01-.06-.01-.07-.04-.02-.02-.04-.05-.04-.09,0-.08.05-.14.12-.14s.13.05.13.14Z"/>
      <path class="cls-1" d="M112.07,36.16c0,.11.03.17.05.21.02.02.04.04.06.05h-.45s.04-.02.06-.04c.03-.04.06-.1.06-.22v-1.57c0-.11-.04-.16-.08-.18-.03-.01-.05-.03-.08-.03l.38-.16v1.95Z"/>
      <path class="cls-1" d="M114.76,35.31c0,.63-.35,1.08-.8,1.14-.17.03-.31,0-.41-.04-.06-.02-.11-.04-.15-.07v-.11c-.03-.05-.03-.1-.02-.09,0,.02.21.26.55.22.24-.04.38-.22.46-.43.11-.28.11-.61.11-.62-.14.17-.28.25-.44.28-.21.04-.63-.07-.69-.56-.04-.26.05-.45.15-.59.12-.16.27-.22.42-.24.52-.07.81.44.81,1.11ZM113.95,34.28c-.21.03-.42.29-.37.69.04.36.23.61.54.53.25-.05.39-.33.39-.34.01-.83-.39-.9-.55-.88Z"/>
      <path class="cls-1" d="M116.07,34.46l-.25.61s.04-.01.06-.01c.04-.01.1-.01.19-.01.3,0,.75.17.75.67,0,.23-.11.41-.26.54-.17.15-.35.2-.57.2-.16,0-.28-.02-.37-.05-.05-.02-.09-.04-.12-.06l-.04-.18s.07.08.12.11c.09.05.21.11.4.11.34,0,.6-.3.6-.67,0-.46-.35-.55-.48-.57-.22-.03-.44.04-.48.07.02-.05.04-.1.06-.15l.14-.33.2-.49h.61c.09,0,.17-.02.2-.03l-.12.26h-.64Z"/>
      <path class="cls-1" d="M119.02,35.62c.04.26-.05.45-.15.58-.13.16-.27.23-.42.25-.53.06-.81-.43-.81-1.11,0-.62.35-1.09.79-1.13.17-.02.32,0,.41.04.06.02.11.04.15.07,0,.04.01.08.01.11.01.05.01.1,0,.09-.01-.03-.2-.26-.55-.22-.25.04-.39.23-.46.44-.11.29-.11.6-.11.61.14-.17.29-.24.45-.27.22-.04.62.06.69.55ZM118.81,35.69c-.05-.37-.24-.59-.54-.54-.25.06-.39.33-.39.34-.01.84.41.9.56.89.21-.04.42-.29.38-.69Z"/>
    </g>
  </g>
</svg>